<?xml version="1.0" encoding="UTF-8"?>
<svg xmlns="http://www.w3.org/2000/svg" version="1.1" viewBox="0 0 2200 2200">
  <defs>
    <style>
      .cls-1 {
        fill: #d8d8d8;
      }
    </style>
  </defs>
  <!-- Generator: Adobe Illustrator 28.6.0, SVG Export Plug-In . SVG Version: 1.2.0 Build 709)  -->
  <g>
    <g id="Objects">
      <g>
        <path d="M1431.72,1274.08c29.27-209.18-94.5-302.07-253.8-326.41,3.03,197.4,9.5,429.2,6.29,558.71-2.54,102.25-97.19,185.19-217.08,185.19s-217.08-82.91-217.08-185.19,97.19-185.19,217.08-185.19c65.7,0,111.98,29.72,133,54.36-2.9-254.4-6.76-530.05-8.7-671.16-.72-52.91,15.63-65.96,36.96-65.96,33.34,0,34.44,38.08,44.94,55.81,27.43,50.27,82.1,54.57,139.01,76.67,91.99,35.74,164.48,125.3,185.22,228.86,19.2,95.8-6.47,200.62-65.85,274.31Z"/>
        <ellipse class="cls-1" cx="1100" cy="1890.59" rx="573.78" ry="48.41"/>
      </g>
    </g>
  </g>
</svg>